<?xml version="1.0" encoding="UTF-8" standalone="no"?>
<!DOCTYPE svg PUBLIC "-//W3C//DTD SVG 1.1//EN"
 "http://www.w3.org/Graphics/SVG/1.1/DTD/svg11.dtd">
<!-- Generated by graphviz version 2.47.3 (20210619.1520)
 -->
<!-- Title: dependencies Pages: 1 -->
<svg width="350pt" height="174pt"
 viewBox="0.00 0.00 350.00 173.80" xmlns="http://www.w3.org/2000/svg" xmlns:xlink="http://www.w3.org/1999/xlink">
<g id="graph0" class="graph" transform="scale(1 1) rotate(0) translate(4 169.8)">
<title>dependencies</title>
<polygon fill="white" stroke="transparent" points="-4,4 -4,-169.8 346,-169.8 346,4 -4,4"/>
<text text-anchor="middle" x="171" y="-8.2" font-family="sans-serif" font-size="14.00">dependencies</text>
<g id="clust1" class="cluster">
<title>cluster_TeamReadPageModule</title>
<polygon fill="none" stroke="black" stroke-dasharray="1,5" points="8,-32.8 8,-157.8 334,-157.8 334,-32.8 8,-32.8"/>
</g>
<g id="clust4" class="cluster">
<title>cluster_TeamReadPageModule_imports</title>
<polygon fill="none" stroke="black" points="144,-40.8 144,-92.8 326,-92.8 326,-40.8 144,-40.8"/>
</g>
<g id="clust2" class="cluster">
<title>cluster_TeamReadPageModule_declarations</title>
<polygon fill="none" stroke="black" points="16,-40.8 16,-92.8 136,-92.8 136,-40.8 16,-40.8"/>
</g>
<!-- TeamReadPage -->
<g id="node1" class="node">
<title>TeamReadPage</title>
<polygon fill="#ffffb3" stroke="black" points="127.85,-84.8 24.15,-84.8 24.15,-48.8 127.85,-48.8 127.85,-84.8"/>
<text text-anchor="middle" x="76" y="-62.6" font-family="Times,serif" font-size="14.00">TeamReadPage</text>
</g>
<!-- TeamReadPageModule -->
<g id="node2" class="node">
<title>TeamReadPageModule</title>
<polygon fill="#8dd3c7" stroke="black" points="235.9,-149.8 232.9,-153.8 211.9,-153.8 208.9,-149.8 88.1,-149.8 88.1,-113.8 235.9,-113.8 235.9,-149.8"/>
<text text-anchor="middle" x="162" y="-127.6" font-family="Times,serif" font-size="14.00">TeamReadPageModule</text>
</g>
<!-- TeamReadPage&#45;&gt;TeamReadPageModule -->
<g id="edge1" class="edge">
<title>TeamReadPage&#45;&gt;TeamReadPageModule</title>
<path fill="none" stroke="black" d="M108.11,-84.91C108.11,-84.91 108.11,-103.79 108.11,-103.79"/>
<polygon fill="black" stroke="black" points="104.61,-103.79 108.11,-113.79 111.61,-103.79 104.61,-103.79"/>
</g>
<!-- TeamReadRoutingModule -->
<g id="node3" class="node">
<title>TeamReadRoutingModule</title>
<polygon fill="#8dd3c7" stroke="black" points="317.81,-84.8 314.81,-88.8 293.81,-88.8 290.81,-84.8 152.19,-84.8 152.19,-48.8 317.81,-48.8 317.81,-84.8"/>
<text text-anchor="middle" x="235" y="-62.6" font-family="Times,serif" font-size="14.00">TeamReadRoutingModule</text>
</g>
<!-- TeamReadRoutingModule&#45;&gt;TeamReadPageModule -->
<g id="edge2" class="edge">
<title>TeamReadRoutingModule&#45;&gt;TeamReadPageModule</title>
<path fill="none" stroke="black" d="M194.02,-84.91C194.02,-84.91 194.02,-103.79 194.02,-103.79"/>
<polygon fill="black" stroke="black" points="190.52,-103.79 194.02,-113.79 197.52,-103.79 190.52,-103.79"/>
</g>
</g>
</svg>
