<?xml version="1.0" encoding="UTF-8" standalone="no"?>
<!DOCTYPE svg PUBLIC "-//W3C//DTD SVG 1.1//EN"
 "http://www.w3.org/Graphics/SVG/1.1/DTD/svg11.dtd">
<!-- Generated by graphviz version 2.47.3 (20210619.1520)
 -->
<!-- Title: dependencies Pages: 1 -->
<svg height="247pt" viewBox="0.00 0.00 593.00 246.80"
 width="593pt" xmlns="http://www.w3.org/2000/svg" xmlns:xlink="http://www.w3.org/1999/xlink">
<g class="graph" id="graph0" transform="scale(1 1) rotate(0) translate(4 242.8)">
<title>dependencies</title>
<polygon fill="white" points="-4,4 -4,-242.8 589,-242.8 589,4 -4,4" stroke="transparent"/>
<text font-family="sans-serif" font-size="14.00" text-anchor="middle" x="292.5" y="-8.2">dependencies</text>
<g class="cluster" id="clust1">
<title>cluster_AppModule</title>
<polygon fill="none" points="8,-32.8 8,-230.8 577,-230.8 577,-32.8 8,-32.8" stroke="black" stroke-dasharray="1,5"/>
</g>
<g class="cluster" id="clust2">
<title>cluster_AppModule_declarations</title>
<polygon fill="none" points="447,-40.8 447,-92.8 569,-92.8 569,-40.8 447,-40.8" stroke="black"/>
</g>
<g class="cluster" id="clust4">
<title>cluster_AppModule_imports</title>
<polygon fill="none" points="178,-40.8 178,-92.8 439,-92.8 439,-40.8 178,-40.8" stroke="black"/>
</g>
<g class="cluster" id="clust6">
<title>cluster_AppModule_bootstrap</title>
<polygon fill="none" points="239,-170.8 239,-222.8 363,-222.8 363,-170.8 239,-170.8" stroke="black"/>
</g>
<g class="cluster" id="clust7">
<title>cluster_AppModule_providers</title>
<polygon fill="none" points="16,-40.8 16,-92.8 170,-92.8 170,-40.8 16,-40.8" stroke="black"/>
</g>
<!-- AppComponent -->
<g class="node" id="node1">
<title>AppComponent</title>
<polygon fill="#ffffb3" points="560.94,-84.8 455.06,-84.8 455.06,-48.8 560.94,-48.8 560.94,-84.8" stroke="black"/>
<text font-family="Times,serif" font-size="14.00" text-anchor="middle" x="508" y="-62.6">AppComponent</text>
</g>
<!-- AppModule -->
<g class="node" id="node2">
<title>AppModule</title>
<polygon fill="#8dd3c7" points="342.66,-149.8 339.66,-153.8 318.66,-153.8 315.66,-149.8 259.34,-149.8 259.34,-113.8 342.66,-113.8 342.66,-149.8" stroke="black"/>
<text font-family="Times,serif" font-size="14.00" text-anchor="middle" x="301" y="-127.6">AppModule</text>
</g>
<!-- AppComponent&#45;&gt;AppModule -->
<g class="edge" id="edge1">
<title>AppComponent&#45;&gt;AppModule</title>
<path d="M508,-84.91C508,-104.14 508,-131.8 508,-131.8 508,-131.8 352.89,-131.8 352.89,-131.8" fill="none" stroke="black"/>
<polygon fill="black" points="352.89,-128.3 342.89,-131.8 352.89,-135.3 352.89,-128.3" stroke="black"/>
</g>
<!-- AppComponent  -->
<g class="node" id="node5">
<title>AppComponent </title>
<polygon fill="#80b1d3" points="355.44,-214.8 246.56,-214.8 246.56,-178.8 355.44,-178.8 355.44,-214.8" stroke="black"/>
<text font-family="Times,serif" font-size="14.00" text-anchor="middle" x="301" y="-192.6">AppComponent </text>
</g>
<!-- AppModule&#45;&gt;AppComponent  -->
<g class="edge" id="edge4">
<title>AppModule&#45;&gt;AppComponent </title>
<path d="M301,-149.91C301,-149.91 301,-168.79 301,-168.79" fill="none" stroke="black" stroke-dasharray="1,5"/>
<polygon fill="black" points="297.5,-168.79 301,-178.79 304.5,-168.79 297.5,-168.79" stroke="black"/>
</g>
<!-- AppRoutingModule -->
<g class="node" id="node3">
<title>AppRoutingModule</title>
<polygon fill="#8dd3c7" points="431.27,-84.8 428.27,-88.8 407.27,-88.8 404.27,-84.8 302.73,-84.8 302.73,-48.8 431.27,-48.8 431.27,-84.8" stroke="black"/>
<text font-family="Times,serif" font-size="14.00" text-anchor="middle" x="367" y="-62.6">AppRoutingModule</text>
</g>
<!-- AppRoutingModule&#45;&gt;AppModule -->
<g class="edge" id="edge2">
<title>AppRoutingModule&#45;&gt;AppModule</title>
<path d="M322.72,-84.91C322.72,-84.91 322.72,-103.79 322.72,-103.79" fill="none" stroke="black"/>
<polygon fill="black" points="319.22,-103.79 322.72,-113.79 326.22,-103.79 319.22,-103.79" stroke="black"/>
</g>
<!-- SharedModule -->
<g class="node" id="node4">
<title>SharedModule</title>
<polygon fill="#8dd3c7" points="284.42,-84.8 281.42,-88.8 260.42,-88.8 257.42,-84.8 185.58,-84.8 185.58,-48.8 284.42,-48.8 284.42,-84.8" stroke="black"/>
<text font-family="Times,serif" font-size="14.00" text-anchor="middle" x="235" y="-62.6">SharedModule</text>
</g>
<!-- SharedModule&#45;&gt;AppModule -->
<g class="edge" id="edge3">
<title>SharedModule&#45;&gt;AppModule</title>
<path d="M271.69,-84.91C271.69,-84.91 271.69,-103.79 271.69,-103.79" fill="none" stroke="black"/>
<polygon fill="black" points="268.19,-103.79 271.69,-113.79 275.19,-103.79 268.19,-103.79" stroke="black"/>
</g>
<!-- StorageService -->
<g class="node" id="node6">
<title>StorageService</title>
<ellipse cx="93" cy="-66.8" fill="#fdb462" rx="69.48" ry="18" stroke="black"/>
<text font-family="Times,serif" font-size="14.00" text-anchor="middle" x="93" y="-62.6">StorageService</text>
</g>
<!-- StorageService&#45;&gt;AppModule -->
<g class="edge" id="edge5">
<title>StorageService&#45;&gt;AppModule</title>
<path d="M93,-84.91C93,-104.14 93,-131.8 93,-131.8 93,-131.8 248.91,-131.8 248.91,-131.8" fill="none" stroke="black"/>
<polygon fill="black" points="248.91,-135.3 258.91,-131.8 248.91,-128.3 248.91,-135.3" stroke="black"/>
</g>
</g>
</svg>
