<?xml version="1.0" encoding="UTF-8" standalone="no"?>
<!DOCTYPE svg PUBLIC "-//W3C//DTD SVG 1.1//EN"
 "http://www.w3.org/Graphics/SVG/1.1/DTD/svg11.dtd">
<!-- Generated by graphviz version 2.47.3 (20210619.1520)
 -->
<!-- Title: dependencies Pages: 1 -->
<svg width="1158pt" height="247pt"
 viewBox="0.00 0.00 1158.00 246.80" xmlns="http://www.w3.org/2000/svg" xmlns:xlink="http://www.w3.org/1999/xlink">
<g id="graph0" class="graph" transform="scale(1 1) rotate(0) translate(4 242.8)">
<title>dependencies</title>
<polygon fill="white" stroke="transparent" points="-4,4 -4,-242.8 1154,-242.8 1154,4 -4,4"/>
<text text-anchor="middle" x="575" y="-8.2" font-family="sans-serif" font-size="14.00">dependencies</text>
<g id="clust1" class="cluster">
<title>cluster_AppModule</title>
<polygon fill="none" stroke="black" stroke-dasharray="1,5" points="8,-32.8 8,-230.8 1142,-230.8 1142,-32.8 8,-32.8"/>
</g>
<g id="clust2" class="cluster">
<title>cluster_AppModule_declarations</title>
<polygon fill="none" stroke="black" points="1012,-40.8 1012,-92.8 1134,-92.8 1134,-40.8 1012,-40.8"/>
</g>
<g id="clust6" class="cluster">
<title>cluster_AppModule_bootstrap</title>
<polygon fill="none" stroke="black" points="520,-170.8 520,-222.8 644,-222.8 644,-170.8 520,-170.8"/>
</g>
<g id="clust4" class="cluster">
<title>cluster_AppModule_imports</title>
<polygon fill="none" stroke="black" points="743,-40.8 743,-92.8 1004,-92.8 1004,-40.8 743,-40.8"/>
</g>
<g id="clust7" class="cluster">
<title>cluster_AppModule_providers</title>
<polygon fill="none" stroke="black" points="16,-40.8 16,-92.8 735,-92.8 735,-40.8 16,-40.8"/>
</g>
<!-- AppComponent -->
<g id="node1" class="node">
<title>AppComponent</title>
<polygon fill="#ffffb3" stroke="black" points="1125.94,-84.8 1020.06,-84.8 1020.06,-48.8 1125.94,-48.8 1125.94,-84.8"/>
<text text-anchor="middle" x="1073" y="-62.6" font-family="Times,serif" font-size="14.00">AppComponent</text>
</g>
<!-- AppModule -->
<g id="node2" class="node">
<title>AppModule</title>
<polygon fill="#8dd3c7" stroke="black" points="623.66,-149.8 620.66,-153.8 599.66,-153.8 596.66,-149.8 540.34,-149.8 540.34,-113.8 623.66,-113.8 623.66,-149.8"/>
<text text-anchor="middle" x="582" y="-127.6" font-family="Times,serif" font-size="14.00">AppModule</text>
</g>
<!-- AppComponent&#45;&gt;AppModule -->
<g id="edge1" class="edge">
<title>AppComponent&#45;&gt;AppModule</title>
<path fill="none" stroke="black" d="M1073,-85.09C1073,-107.01 1073,-140.8 1073,-140.8 1073,-140.8 633.86,-140.8 633.86,-140.8"/>
<polygon fill="black" stroke="black" points="633.86,-137.3 623.86,-140.8 633.86,-144.3 633.86,-137.3"/>
</g>
<!-- AppComponent  -->
<g id="node5" class="node">
<title>AppComponent </title>
<polygon fill="#80b1d3" stroke="black" points="636.44,-214.8 527.56,-214.8 527.56,-178.8 636.44,-178.8 636.44,-214.8"/>
<text text-anchor="middle" x="582" y="-192.6" font-family="Times,serif" font-size="14.00">AppComponent </text>
</g>
<!-- AppModule&#45;&gt;AppComponent  -->
<g id="edge4" class="edge">
<title>AppModule&#45;&gt;AppComponent </title>
<path fill="none" stroke="black" stroke-dasharray="1,5" d="M582,-149.91C582,-149.91 582,-168.79 582,-168.79"/>
<polygon fill="black" stroke="black" points="578.5,-168.79 582,-178.79 585.5,-168.79 578.5,-168.79"/>
</g>
<!-- AppRoutingModule -->
<g id="node3" class="node">
<title>AppRoutingModule</title>
<polygon fill="#8dd3c7" stroke="black" points="996.27,-84.8 993.27,-88.8 972.27,-88.8 969.27,-84.8 867.73,-84.8 867.73,-48.8 996.27,-48.8 996.27,-84.8"/>
<text text-anchor="middle" x="932" y="-62.6" font-family="Times,serif" font-size="14.00">AppRoutingModule</text>
</g>
<!-- AppRoutingModule&#45;&gt;AppModule -->
<g id="edge2" class="edge">
<title>AppRoutingModule&#45;&gt;AppModule</title>
<path fill="none" stroke="black" d="M932,-84.91C932,-104.14 932,-131.8 932,-131.8 932,-131.8 633.87,-131.8 633.87,-131.8"/>
<polygon fill="black" stroke="black" points="633.87,-128.3 623.87,-131.8 633.87,-135.3 633.87,-128.3"/>
</g>
<!-- SharedModule -->
<g id="node4" class="node">
<title>SharedModule</title>
<polygon fill="#8dd3c7" stroke="black" points="849.42,-84.8 846.42,-88.8 825.42,-88.8 822.42,-84.8 750.58,-84.8 750.58,-48.8 849.42,-48.8 849.42,-84.8"/>
<text text-anchor="middle" x="800" y="-62.6" font-family="Times,serif" font-size="14.00">SharedModule</text>
</g>
<!-- SharedModule&#45;&gt;AppModule -->
<g id="edge3" class="edge">
<title>SharedModule&#45;&gt;AppModule</title>
<path fill="none" stroke="black" d="M800,-84.83C800,-101.2 800,-122.8 800,-122.8 800,-122.8 633.77,-122.8 633.77,-122.8"/>
<polygon fill="black" stroke="black" points="633.77,-119.3 623.77,-122.8 633.77,-126.3 633.77,-119.3"/>
</g>
<!-- ProjectService -->
<g id="node6" class="node">
<title>ProjectService</title>
<ellipse fill="#fdb462" stroke="black" cx="660" cy="-66.8" rx="67.19" ry="18"/>
<text text-anchor="middle" x="660" y="-62.6" font-family="Times,serif" font-size="14.00">ProjectService</text>
</g>
<!-- ProjectService&#45;&gt;AppModule -->
<g id="edge5" class="edge">
<title>ProjectService&#45;&gt;AppModule</title>
<path fill="none" stroke="black" d="M608.24,-78.42C608.24,-78.42 608.24,-103.65 608.24,-103.65"/>
<polygon fill="black" stroke="black" points="604.74,-103.65 608.24,-113.65 611.74,-103.65 604.74,-103.65"/>
</g>
<!-- StorageService -->
<g id="node7" class="node">
<title>StorageService</title>
<ellipse fill="#fdb462" stroke="black" cx="505" cy="-66.8" rx="69.48" ry="18"/>
<text text-anchor="middle" x="505" y="-62.6" font-family="Times,serif" font-size="14.00">StorageService</text>
</g>
<!-- StorageService&#45;&gt;AppModule -->
<g id="edge6" class="edge">
<title>StorageService&#45;&gt;AppModule</title>
<path fill="none" stroke="black" d="M557.33,-78.72C557.33,-78.72 557.33,-103.57 557.33,-103.57"/>
<polygon fill="black" stroke="black" points="553.83,-103.57 557.33,-113.57 560.83,-103.57 553.83,-103.57"/>
</g>
<!-- TaskService -->
<g id="node8" class="node">
<title>TaskService</title>
<ellipse fill="#fdb462" stroke="black" cx="359" cy="-66.8" rx="58.53" ry="18"/>
<text text-anchor="middle" x="359" y="-62.6" font-family="Times,serif" font-size="14.00">TaskService</text>
</g>
<!-- TaskService&#45;&gt;AppModule -->
<g id="edge7" class="edge">
<title>TaskService&#45;&gt;AppModule</title>
<path fill="none" stroke="black" d="M359,-84.83C359,-101.2 359,-122.8 359,-122.8 359,-122.8 530.32,-122.8 530.32,-122.8"/>
<polygon fill="black" stroke="black" points="530.32,-126.3 540.32,-122.8 530.32,-119.3 530.32,-126.3"/>
</g>
<!-- TeamService -->
<g id="node9" class="node">
<title>TeamService</title>
<ellipse fill="#fdb462" stroke="black" cx="220" cy="-66.8" rx="61.95" ry="18"/>
<text text-anchor="middle" x="220" y="-62.6" font-family="Times,serif" font-size="14.00">TeamService</text>
</g>
<!-- TeamService&#45;&gt;AppModule -->
<g id="edge8" class="edge">
<title>TeamService&#45;&gt;AppModule</title>
<path fill="none" stroke="black" d="M220,-84.91C220,-104.14 220,-131.8 220,-131.8 220,-131.8 530.12,-131.8 530.12,-131.8"/>
<polygon fill="black" stroke="black" points="530.12,-135.3 540.12,-131.8 530.12,-128.3 530.12,-135.3"/>
</g>
<!-- UserService -->
<g id="node10" class="node">
<title>UserService</title>
<ellipse fill="#fdb462" stroke="black" cx="82" cy="-66.8" rx="58.44" ry="18"/>
<text text-anchor="middle" x="82" y="-62.6" font-family="Times,serif" font-size="14.00">UserService</text>
</g>
<!-- UserService&#45;&gt;AppModule -->
<g id="edge9" class="edge">
<title>UserService&#45;&gt;AppModule</title>
<path fill="none" stroke="black" d="M82,-85.09C82,-107.01 82,-140.8 82,-140.8 82,-140.8 530.23,-140.8 530.23,-140.8"/>
<polygon fill="black" stroke="black" points="530.23,-144.3 540.23,-140.8 530.23,-137.3 530.23,-144.3"/>
</g>
</g>
</svg>
