<?xml version="1.0" encoding="UTF-8" standalone="no"?>
<!DOCTYPE svg PUBLIC "-//W3C//DTD SVG 1.1//EN"
 "http://www.w3.org/Graphics/SVG/1.1/DTD/svg11.dtd">
<!-- Generated by graphviz version 2.47.3 (20210619.1520)
 -->
<!-- Title: dependencies Pages: 1 -->
<svg width="344pt" height="174pt"
 viewBox="0.00 0.00 344.00 173.80" xmlns="http://www.w3.org/2000/svg" xmlns:xlink="http://www.w3.org/1999/xlink">
<g id="graph0" class="graph" transform="scale(1 1) rotate(0) translate(4 169.8)">
<title>dependencies</title>
<polygon fill="white" stroke="transparent" points="-4,4 -4,-169.8 340,-169.8 340,4 -4,4"/>
<text text-anchor="middle" x="168" y="-8.2" font-family="sans-serif" font-size="14.00">dependencies</text>
<g id="clust1" class="cluster">
<title>cluster_ProjectsPageModule</title>
<polygon fill="none" stroke="black" stroke-dasharray="1,5" points="8,-32.8 8,-157.8 328,-157.8 328,-32.8 8,-32.8"/>
</g>
<g id="clust4" class="cluster">
<title>cluster_ProjectsPageModule_imports</title>
<polygon fill="none" stroke="black" points="128,-40.8 128,-92.8 320,-92.8 320,-40.8 128,-40.8"/>
</g>
<g id="clust2" class="cluster">
<title>cluster_ProjectsPageModule_declarations</title>
<polygon fill="none" stroke="black" points="16,-40.8 16,-92.8 120,-92.8 120,-40.8 16,-40.8"/>
</g>
<!-- ProjectsPage -->
<g id="node1" class="node">
<title>ProjectsPage</title>
<polygon fill="#ffffb3" stroke="black" points="112.31,-84.8 23.69,-84.8 23.69,-48.8 112.31,-48.8 112.31,-84.8"/>
<text text-anchor="middle" x="68" y="-62.6" font-family="Times,serif" font-size="14.00">ProjectsPage</text>
</g>
<!-- ProjectsPageModule -->
<g id="node2" class="node">
<title>ProjectsPageModule</title>
<polygon fill="#8dd3c7" stroke="black" points="218.86,-149.8 215.86,-153.8 194.86,-153.8 191.86,-149.8 87.14,-149.8 87.14,-113.8 218.86,-113.8 218.86,-149.8"/>
<text text-anchor="middle" x="153" y="-127.6" font-family="Times,serif" font-size="14.00">ProjectsPageModule</text>
</g>
<!-- ProjectsPage&#45;&gt;ProjectsPageModule -->
<g id="edge1" class="edge">
<title>ProjectsPage&#45;&gt;ProjectsPageModule</title>
<path fill="none" stroke="black" d="M99.61,-84.91C99.61,-84.91 99.61,-103.79 99.61,-103.79"/>
<polygon fill="black" stroke="black" points="96.11,-103.79 99.61,-113.79 103.11,-103.79 96.11,-103.79"/>
</g>
<!-- ProjectsPageRoutingModule -->
<g id="node3" class="node">
<title>ProjectsPageRoutingModule</title>
<polygon fill="#8dd3c7" stroke="black" points="312.48,-84.8 309.48,-88.8 288.48,-88.8 285.48,-84.8 135.52,-84.8 135.52,-48.8 312.48,-48.8 312.48,-84.8"/>
<text text-anchor="middle" x="224" y="-62.6" font-family="Times,serif" font-size="14.00">ProjectsPageRoutingModule</text>
</g>
<!-- ProjectsPageRoutingModule&#45;&gt;ProjectsPageModule -->
<g id="edge2" class="edge">
<title>ProjectsPageRoutingModule&#45;&gt;ProjectsPageModule</title>
<path fill="none" stroke="black" d="M177.22,-84.91C177.22,-84.91 177.22,-103.79 177.22,-103.79"/>
<polygon fill="black" stroke="black" points="173.72,-103.79 177.22,-113.79 180.72,-103.79 173.72,-103.79"/>
</g>
</g>
</svg>
