<?xml version="1.0" encoding="UTF-8" standalone="no"?>
<!DOCTYPE svg PUBLIC "-//W3C//DTD SVG 1.1//EN"
 "http://www.w3.org/Graphics/SVG/1.1/DTD/svg11.dtd">
<!-- Generated by graphviz version 2.47.3 (20210619.1520)
 -->
<!-- Title: dependencies Pages: 1 -->
<svg width="338pt" height="174pt"
 viewBox="0.00 0.00 338.00 173.80" xmlns="http://www.w3.org/2000/svg" xmlns:xlink="http://www.w3.org/1999/xlink">
<g id="graph0" class="graph" transform="scale(1 1) rotate(0) translate(4 169.8)">
<title>dependencies</title>
<polygon fill="white" stroke="transparent" points="-4,4 -4,-169.8 334,-169.8 334,4 -4,4"/>
<text text-anchor="middle" x="165" y="-8.2" font-family="sans-serif" font-size="14.00">dependencies</text>
<g id="clust1" class="cluster">
<title>cluster_UserReadPageModule</title>
<polygon fill="none" stroke="black" stroke-dasharray="1,5" points="8,-32.8 8,-157.8 322,-157.8 322,-32.8 8,-32.8"/>
</g>
<g id="clust2" class="cluster">
<title>cluster_UserReadPageModule_declarations</title>
<polygon fill="none" stroke="black" points="200,-40.8 200,-92.8 314,-92.8 314,-40.8 200,-40.8"/>
</g>
<g id="clust4" class="cluster">
<title>cluster_UserReadPageModule_imports</title>
<polygon fill="none" stroke="black" points="16,-40.8 16,-92.8 192,-92.8 192,-40.8 16,-40.8"/>
</g>
<!-- UserReadPage -->
<g id="node1" class="node">
<title>UserReadPage</title>
<polygon fill="#ffffb3" stroke="black" points="306.4,-84.8 207.6,-84.8 207.6,-48.8 306.4,-48.8 306.4,-84.8"/>
<text text-anchor="middle" x="257" y="-62.6" font-family="Times,serif" font-size="14.00">UserReadPage</text>
</g>
<!-- UserReadPageModule -->
<g id="node2" class="node">
<title>UserReadPageModule</title>
<polygon fill="#8dd3c7" stroke="black" points="243.95,-149.8 240.95,-153.8 219.95,-153.8 216.95,-149.8 102.05,-149.8 102.05,-113.8 243.95,-113.8 243.95,-149.8"/>
<text text-anchor="middle" x="173" y="-127.6" font-family="Times,serif" font-size="14.00">UserReadPageModule</text>
</g>
<!-- UserReadPage&#45;&gt;UserReadPageModule -->
<g id="edge1" class="edge">
<title>UserReadPage&#45;&gt;UserReadPageModule</title>
<path fill="none" stroke="black" d="M225.89,-84.91C225.89,-84.91 225.89,-103.79 225.89,-103.79"/>
<polygon fill="black" stroke="black" points="222.39,-103.79 225.89,-113.79 229.39,-103.79 222.39,-103.79"/>
</g>
<!-- ReadPageRoutingModule -->
<g id="node3" class="node">
<title>ReadPageRoutingModule</title>
<polygon fill="#8dd3c7" stroke="black" points="184.15,-84.8 181.15,-88.8 160.15,-88.8 157.15,-84.8 23.85,-84.8 23.85,-48.8 184.15,-48.8 184.15,-84.8"/>
<text text-anchor="middle" x="104" y="-62.6" font-family="Times,serif" font-size="14.00">ReadPageRoutingModule</text>
</g>
<!-- ReadPageRoutingModule&#45;&gt;UserReadPageModule -->
<g id="edge2" class="edge">
<title>ReadPageRoutingModule&#45;&gt;UserReadPageModule</title>
<path fill="none" stroke="black" d="M143.17,-84.91C143.17,-84.91 143.17,-103.79 143.17,-103.79"/>
<polygon fill="black" stroke="black" points="139.67,-103.79 143.17,-113.79 146.67,-103.79 139.67,-103.79"/>
</g>
</g>
</svg>
