<?xml version="1.0" encoding="UTF-8" standalone="no"?>
<!DOCTYPE svg PUBLIC "-//W3C//DTD SVG 1.1//EN"
 "http://www.w3.org/Graphics/SVG/1.1/DTD/svg11.dtd">
<!-- Generated by graphviz version 2.47.3 (20210619.1520)
 -->
<!-- Title: dependencies Pages: 1 -->
<svg height="174pt" viewBox="0.00 0.00 328.00 173.80"
 width="328pt" xmlns="http://www.w3.org/2000/svg" xmlns:xlink="http://www.w3.org/1999/xlink">
<g class="graph" id="graph0" transform="scale(1 1) rotate(0) translate(4 169.8)">
<title>dependencies</title>
<polygon fill="white" points="-4,4 -4,-169.8 324,-169.8 324,4 -4,4" stroke="transparent"/>
<text font-family="sans-serif" font-size="14.00" text-anchor="middle" x="160" y="-8.2">dependencies</text>
<g class="cluster" id="clust1">
<title>cluster_FolderPageModule</title>
<polygon fill="none" points="8,-32.8 8,-157.8 312,-157.8 312,-32.8 8,-32.8" stroke="black" stroke-dasharray="1,5"/>
</g>
<g class="cluster" id="clust2">
<title>cluster_FolderPageModule_declarations</title>
<polygon fill="none" points="208,-40.8 208,-92.8 304,-92.8 304,-40.8 208,-40.8" stroke="black"/>
</g>
<g class="cluster" id="clust4">
<title>cluster_FolderPageModule_imports</title>
<polygon fill="none" points="16,-40.8 16,-92.8 200,-92.8 200,-40.8 16,-40.8" stroke="black"/>
</g>
<!-- FolderPage -->
<g class="node" id="node1">
<title>FolderPage</title>
<polygon fill="#ffffb3" points="295.76,-84.8 216.24,-84.8 216.24,-48.8 295.76,-48.8 295.76,-84.8" stroke="black"/>
<text font-family="Times,serif" font-size="14.00" text-anchor="middle" x="256" y="-62.6">FolderPage</text>
</g>
<!-- FolderPageModule -->
<g class="node" id="node2">
<title>FolderPageModule</title>
<polygon fill="#8dd3c7" points="236.81,-149.8 233.81,-153.8 212.81,-153.8 209.81,-149.8 113.19,-149.8 113.19,-113.8 236.81,-113.8 236.81,-149.8" stroke="black"/>
<text font-family="Times,serif" font-size="14.00" text-anchor="middle" x="175" y="-127.6">FolderPageModule</text>
</g>
<!-- FolderPage&#45;&gt;FolderPageModule -->
<g class="edge" id="edge1">
<title>FolderPage&#45;&gt;FolderPageModule</title>
<path d="M226.39,-84.91C226.39,-84.91 226.39,-103.79 226.39,-103.79" fill="none" stroke="black"/>
<polygon fill="black" points="222.89,-103.79 226.39,-113.79 229.89,-103.79 222.89,-103.79" stroke="black"/>
</g>
<!-- FolderPageRoutingModule -->
<g class="node" id="node3">
<title>FolderPageRoutingModule</title>
<polygon fill="#8dd3c7" points="192.43,-84.8 189.43,-88.8 168.43,-88.8 165.43,-84.8 23.57,-84.8 23.57,-48.8 192.43,-48.8 192.43,-84.8" stroke="black"/>
<text font-family="Times,serif" font-size="14.00" text-anchor="middle" x="108" y="-62.6">FolderPageRoutingModule</text>
</g>
<!-- FolderPageRoutingModule&#45;&gt;FolderPageModule -->
<g class="edge" id="edge2">
<title>FolderPageRoutingModule&#45;&gt;FolderPageModule</title>
<path d="M152.78,-84.91C152.78,-84.91 152.78,-103.79 152.78,-103.79" fill="none" stroke="black"/>
<polygon fill="black" points="149.28,-103.79 152.78,-113.79 156.28,-103.79 149.28,-103.79" stroke="black"/>
</g>
</g>
</svg>
